<svg version="1.1" viewBox="0.0 0.0 540.0 540.0" fill="none" stroke="none" stroke-linecap="square" stroke-miterlimit="10" xmlns:xlink="http://www.w3.org/1999/xlink" xmlns="http://www.w3.org/2000/svg"><clipPath id="p.0"><path d="m0 0l540.0 0l0 540.0l-540.0 0l0 -540.0z" clip-rule="nonzero"/></clipPath><g clip-path="url(#p.0)"><path fill="#ffffff" d="m0 0l540.0 0l0 540.0l-540.0 0z" fill-rule="evenodd"/><path fill="#0c0b2a" d="m0 0l540.0 0l0 540.0l-540.0 0z" fill-rule="evenodd"/><path stroke="#595959" stroke-width="0.958005249343832" stroke-linejoin="round" stroke-linecap="butt" d="m0 0l540.0 0l0 540.0l-540.0 0z" fill-rule="evenodd"/><path fill="#f5b017" d="m32.013695 277.98447l191.2229 -23.45108l-137.84085 134.62997z" fill-rule="evenodd"/><path fill="#f5b017" d="m136.7258 415.5196l128.02856 -143.95514l-14.509277 192.13388z" fill-rule="evenodd"/><path fill="#f5b017" d="m144.33624 88.13425l99.77054 164.81755l-179.2844 -70.54596z" fill-rule="evenodd"/><path fill="#f5b017" d="m463.0347 170.15422l-173.83392 83.03667l87.88092 -171.45518z" fill-rule="evenodd"/><path fill="#f5b017" d="m326.65277 65.941574l-75.27792 177.33002l-47.673447 -186.65555z" fill-rule="evenodd"/><path fill="#f5b017" d="m501.8307 337.60294l-187.38254 -44.781128l176.1543 -78.03485z" fill-rule="evenodd"/><path fill="#f5b017" d="m321.22058 476.68594l-46.24994 -187.01309l150.17783 120.66196z" fill-rule="evenodd"/><path fill="#ffcd30" d="m35.907047 295.58777l188.93773 -37.849457l-127.289246 144.68207z" fill-rule="evenodd"/><path fill="#ffcd30" d="m150.74182 424.821l116.79788 -153.23917l0.06188965 192.6979z" fill-rule="evenodd"/><path fill="#ffcd30" d="m133.56955 97.768906l111.969986 156.81367l-184.1408 -56.789642z" fill-rule="evenodd"/><path fill="#ffcd30" d="m457.61942 155.45587l-167.08841 95.95438l74.67761 -177.62622z" fill-rule="evenodd"/><path fill="#ffcd30" d="m313.71994 61.84802l-61.66397 182.53148l-61.663956 -182.53148z" fill-rule="evenodd"/><path fill="#ffcd30" d="m508.97693 319.50534l-190.26852 -30.483826l169.78091 -91.14195z" fill-rule="evenodd"/><path fill="#ffcd30" d="m339.36963 471.86298l-60.2713 -182.99573l158.90268 108.96802z" fill-rule="evenodd"/><path fill="#ab62f2" d="m158.38995 179.56158l234.24542 126.742035l58.417328 -63.87401l-234.24542 -126.742035z" fill-rule="evenodd"/><path fill="#884ec1" d="m392.63538 306.30362l5.904175 35.02176l58.417328 -63.874023l-5.904175 -35.021744z" fill-rule="evenodd"/><path fill="#bb81f4" d="m158.38995 179.56158l5.904175 35.021744l234.24542 126.74205l-5.904175 -35.02176z" fill-rule="evenodd"/><path fill="#000000" fill-opacity="0.0" d="m158.38995 179.56158l5.904175 35.021744l234.24542 126.74205l58.417328 -63.874023l-5.904175 -35.021744l-234.24542 -126.742035zm0 0l234.24542 126.742035l5.904175 35.02176m-5.904175 -35.02176l58.417328 -63.87401" fill-rule="evenodd"/><path fill="#29d5df" d="m89.026146 254.42973l234.24542 126.74205l58.417328 -63.874023l-234.24544 -126.742035z" fill-rule="evenodd"/><path fill="#20aab2" d="m323.27158 381.17178l5.904175 35.02173l58.417328 -63.873993l-5.904175 -35.02176z" fill-rule="evenodd"/><path fill="#53dde5" d="m89.026146 254.42973l5.9041824 35.021744l234.24542 126.742035l-5.904175 -35.02173z" fill-rule="evenodd"/><path fill="#000000" fill-opacity="0.0" d="m89.026146 254.42973l5.9041824 35.021744l234.24542 126.742035l58.417328 -63.873993l-5.904175 -35.02176l-234.24544 -126.742035zm0 0l234.24542 126.74205l5.904175 35.02173m-5.904175 -35.02173l58.417328 -63.874023" fill-rule="evenodd"/><path stroke="#81d7e9" stroke-width="1.0446194225721785" stroke-linejoin="round" stroke-linecap="butt" d="m89.026146 254.42973l5.9041824 35.021744l234.24542 126.742035l58.417328 -63.873993l-5.904175 -35.02176l-234.24544 -126.742035zm0 0l234.24542 126.74205l5.904175 35.02173m-5.904175 -35.02173l58.417328 -63.874023" fill-rule="evenodd"/></g></svg>